<svg width="14" height="14" viewBox="0 0 14 14" fill="#858bac" xmlns="http://www.w3.org/2000/svg">
<path d="M11.3806 3.41249L7.91563 1.41166C7.34979 1.08499 6.64979 1.08499 6.07813 1.41166L2.61896 3.41249C2.05312 3.73916 1.70312 4.34582 1.70312 5.00499V8.99499C1.70312 9.64832 2.05312 10.255 2.61896 10.5875L6.08396 12.5883C6.64979 12.915 7.34979 12.915 7.92146 12.5883L11.3865 10.5875C11.9523 10.2608 12.3023 9.65416 12.3023 8.99499V5.00499C12.2965 4.34582 11.9465 3.74499 11.3806 3.41249ZM6.56229 4.52082C6.56229 4.28166 6.76063 4.08332 6.99979 4.08332C7.23896 4.08332 7.43729 4.28166 7.43729 4.52082V7.58332C7.43729 7.82249 7.23896 8.02082 6.99979 8.02082C6.76063 8.02082 6.56229 7.82249 6.56229 7.58332V4.52082ZM7.53646 9.70082C7.50729 9.77082 7.46646 9.83499 7.41396 9.89332C7.30313 10.0042 7.15729 10.0625 6.99979 10.0625C6.92396 10.0625 6.84813 10.045 6.77813 10.0158C6.70229 9.98666 6.64396 9.94582 6.58563 9.89332C6.53313 9.83499 6.49229 9.77082 6.45729 9.70082C6.42812 9.63082 6.41646 9.55499 6.41646 9.47916C6.41646 9.32749 6.47479 9.17582 6.58563 9.06499C6.64396 9.01249 6.70229 8.97166 6.77813 8.94249C6.99396 8.84916 7.25063 8.90166 7.41396 9.06499C7.46646 9.12332 7.50729 9.18166 7.53646 9.25749C7.56563 9.32749 7.58313 9.40332 7.58313 9.47916C7.58313 9.55499 7.56563 9.63082 7.53646 9.70082Z" fill="#858bac"/>
</svg>
