<svg width="16" height="17" viewBox="0 0 16 17" fill="#b5b7da" xmlns="http://www.w3.org/2000/svg">
<path d="M10.7935 1.83333H5.20683C2.78016 1.83333 1.3335 3.27999 1.3335 5.70666V11.2867C1.3335 13.72 2.78016 15.1667 5.20683 15.1667H10.7868C13.2135 15.1667 14.6602 13.72 14.6602 11.2933V5.70666C14.6668 3.27999 13.2202 1.83333 10.7935 1.83333ZM6.0735 11.7667C6.0735 11.9533 5.92683 12.1 5.74016 12.1H3.88016C3.6935 12.1 3.54683 11.9533 3.54683 11.7667V8.68666C3.54683 8.26666 3.88683 7.92666 4.30683 7.92666H5.74016C5.92683 7.92666 6.0735 8.07333 6.0735 8.26V11.7667ZM9.26016 11.7667C9.26016 11.9533 9.1135 12.1 8.92683 12.1H7.06683C6.88016 12.1 6.7335 11.9533 6.7335 11.7667V5.65999C6.7335 5.23999 7.0735 4.89999 7.4935 4.89999H8.50683C8.92683 4.89999 9.26683 5.23999 9.26683 5.65999V11.7667H9.26016ZM12.4535 11.7667C12.4535 11.9533 12.3068 12.1 12.1202 12.1H10.2602C10.0735 12.1 9.92683 11.9533 9.92683 11.7667V9.4C9.92683 9.21333 10.0735 9.06666 10.2602 9.06666H11.6935C12.1135 9.06666 12.4535 9.40666 12.4535 9.82666V11.7667Z" fill="#b5b7da"/>
</svg>