<svg width="16" height="17" viewBox="0 0 16 17" fill="#b5b7da" xmlns="http://www.w3.org/2000/svg">
<path d="M11.333 15.1667H4.66638C4.39305 15.1667 4.16638 14.9401 4.16638 14.6667C4.16638 14.3934 4.39305 14.1667 4.66638 14.1667H11.333C11.6064 14.1667 11.833 14.3934 11.833 14.6667C11.833 14.9401 11.6064 15.1667 11.333 15.1667Z" fill="#b5b7da"/>
<path d="M13.5668 4.17999L10.9001 6.08665C10.5468 6.33999 10.0401 6.18665 9.88681 5.77999L8.62681 2.41999C8.41348 1.83999 7.59348 1.83999 7.38015 2.41999L6.11348 5.77332C5.96015 6.18665 5.46015 6.33999 5.10681 6.07999L2.44015 4.17332C1.90681 3.79999 1.20015 4.32665 1.42015 4.94665L4.19348 12.7133C4.28681 12.98 4.54015 13.1533 4.82015 13.1533H11.1735C11.4535 13.1533 11.7068 12.9733 11.8001 12.7133L14.5735 4.94665C14.8001 4.32665 14.0935 3.79999 13.5668 4.17999ZM9.66681 10.3333H6.33348C6.06015 10.3333 5.83348 10.1067 5.83348 9.83332C5.83348 9.55999 6.06015 9.33332 6.33348 9.33332H9.66681C9.94015 9.33332 10.1668 9.55999 10.1668 9.83332C10.1668 10.1067 9.94015 10.3333 9.66681 10.3333Z" fill="#b5b7da"/>
</svg>
