<svg width="20" height="20" viewBox="0 0 20 20" fill="#8D93D7" xmlns="http://www.w3.org/2000/svg">
<path d="M17.167 3.41667V5.25C17.167 5.91667 16.7503 6.75 16.3336 7.16667L12.7503 10.3333C12.2503 10.75 11.917 11.5833 11.917 12.25V15.8333C11.917 16.3333 11.5836 17 11.167 17.25L10.0003 18C8.91698 18.6667 7.41698 17.9167 7.41698 16.5833V12.1667C7.41698 11.5833 7.08365 10.8333 6.75031 10.4167L6.35864 10.0083C6.10031 9.73333 6.05031 9.31667 6.25864 8.99167L10.5253 2.14167C10.6753 1.9 10.942 1.75 11.2336 1.75H15.5003C16.417 1.75 17.167 2.5 17.167 3.41667Z" fill="#8D93D7"/>
<path d="M8.62516 3.025L5.66683 7.76667C5.3835 8.225 4.7335 8.29167 4.3585 7.9L3.5835 7.08333C3.16683 6.66667 2.8335 5.91667 2.8335 5.41667V3.5C2.8335 2.5 3.5835 1.75 4.50016 1.75H7.91683C8.56683 1.75 8.96683 2.46667 8.62516 3.025Z" fill="#8D93D7"/>
</svg>
