<svg width="91" height="20" viewBox="0 0 91 20" fill="none" xmlns="http://www.w3.org/2000/svg">
<g clip-path="url(#clip0_27131_69388)">
<path d="M83.2307 15.1228L79.9497 7.59296H82.1496L84.3872 12.9858L86.9767 7.59296H89.1389L84.0352 17.9638H81.8479L83.2307 15.1228ZM75.2608 13.5641C75.4494 13.5138 75.6379 13.4509 75.8139 13.3503C75.9774 13.2624 76.1408 13.1492 76.2791 13.0235C76.4173 12.8978 76.543 12.747 76.6436 12.5835C76.7442 12.4075 76.8322 12.219 76.8825 12.0304C76.9453 11.8167 76.9704 11.603 76.9704 11.3767C76.9704 11.1505 76.9453 10.9368 76.8825 10.7231C76.8322 10.5345 76.7442 10.3459 76.6436 10.17C76.543 10.0065 76.4173 9.85569 76.2791 9.72998C76.1408 9.60428 75.9774 9.49114 75.8139 9.40315C75.6379 9.31515 75.4494 9.2523 75.2608 9.20201C75.0597 9.15173 74.846 9.12659 74.6449 9.13916C74.4437 9.13916 74.23 9.1643 74.0289 9.20201C73.8403 9.23973 73.6518 9.31515 73.4758 9.40315C73.2998 9.49114 73.1489 9.60428 73.0107 9.72998C72.8724 9.85569 72.7467 10.0065 72.6461 10.17C72.5456 10.3459 72.4576 10.5345 72.4073 10.7231C72.3444 10.9368 72.3193 11.163 72.3193 11.3767C72.3193 11.5904 72.3444 11.8167 72.4073 12.0304C72.4576 12.219 72.5456 12.4075 72.6461 12.5835C72.7467 12.747 72.8724 12.8978 73.0107 13.0235C73.1489 13.1492 73.3124 13.2624 73.4758 13.3503C73.6518 13.4383 73.8278 13.5138 74.0289 13.5641C74.23 13.6143 74.4312 13.6395 74.6449 13.6269C74.846 13.6395 75.0471 13.6143 75.2608 13.5641ZM73.0358 15.2485C72.6964 15.1605 72.3696 15.0348 72.0679 14.8588C71.477 14.532 70.9868 14.0417 70.6599 13.4509C70.484 13.1492 70.3583 12.8224 70.2703 12.483C70.0943 11.7539 70.0943 10.9996 70.2703 10.2705C70.3583 9.93112 70.484 9.60428 70.6599 9.30258C70.9868 8.71176 71.477 8.23407 72.0679 7.89466C72.3696 7.73124 72.6964 7.59296 73.0358 7.50497C73.4004 7.41697 73.7649 7.36669 74.142 7.36669C74.3432 7.36669 74.5443 7.37926 74.7454 7.4044C74.934 7.42954 75.11 7.46726 75.286 7.51754C75.4494 7.56782 75.6128 7.6181 75.7637 7.69353C75.9145 7.75638 76.0528 7.83181 76.1911 7.9198C76.3168 7.99523 76.4425 8.09579 76.543 8.19636C76.6436 8.29692 76.7442 8.39749 76.8196 8.51062V7.60553H78.9063V15.1731H76.8196V14.268C76.543 14.62 76.1785 14.8965 75.7637 15.0851C75.5248 15.1982 75.2734 15.2737 75.0094 15.3114C74.7203 15.3617 74.4186 15.3994 74.1295 15.3868C73.7649 15.3868 73.4004 15.3491 73.0358 15.2485ZM65.4682 9.51628C65.7699 9.51628 66.0716 9.49114 66.3608 9.41572C66.587 9.35286 66.8007 9.2523 66.9767 9.10145C67.1401 8.96317 67.2659 8.78718 67.3413 8.58605C67.4167 8.35978 67.467 8.12093 67.4544 7.88209C67.4544 7.64325 67.4167 7.4044 67.3413 7.17813C67.2659 6.977 67.1401 6.81358 66.9767 6.6753C66.8007 6.53702 66.587 6.42389 66.3608 6.3736C66.0716 6.29818 65.7699 6.26047 65.4682 6.27304H63.4192V9.51628H65.4682ZM61.2571 4.488H65.6819C66.2979 4.47543 66.9013 4.56342 67.4796 4.73941C67.9447 4.87769 68.3721 5.1291 68.7366 5.44337C69.0635 5.74507 69.3149 6.10962 69.4783 6.52445C69.6417 6.96443 69.7297 7.42954 69.7171 7.89466C69.7171 8.35978 69.6417 8.82489 69.4783 9.2523C69.3149 9.66713 69.0635 10.0317 68.7366 10.3334C68.3721 10.6602 67.9447 10.8991 67.4796 11.0373C66.9013 11.2133 66.2853 11.3013 65.6819 11.2888H63.4318V15.1731H61.2696L61.2571 4.488ZM51.9924 7.59296H54.0666V8.49805C54.1923 8.32206 54.3432 8.15865 54.5192 8.03294C54.6951 7.89466 54.8963 7.76895 55.11 7.68096C55.3363 7.58039 55.5877 7.50497 55.8391 7.45469C56.1156 7.4044 56.3922 7.37926 56.6813 7.37926C57.1213 7.36669 57.5613 7.44212 57.9635 7.59296C58.3281 7.73124 58.6675 7.94494 58.944 8.2215C59.2206 8.51063 59.4217 8.86261 59.5474 9.23973C59.6983 9.6797 59.7611 10.1322 59.7611 10.5974V15.1731H57.687V11.1379C57.687 10.8488 57.6493 10.5471 57.5613 10.2705C57.4858 10.0443 57.3727 9.83055 57.2093 9.64199C57.0584 9.47857 56.8573 9.34029 56.6436 9.26487C56.1534 9.10145 55.6128 9.10145 55.11 9.26487C54.8963 9.34029 54.6951 9.47857 54.5443 9.64199C54.3809 9.83055 54.2677 10.0443 54.1923 10.2705C54.1043 10.5471 54.0666 10.8488 54.0666 11.1379V15.1731H52.005L51.9924 7.59296ZM46.8887 13.5389C47.0899 13.4886 47.2784 13.4258 47.4544 13.3252C47.6304 13.2372 47.7813 13.1241 47.9195 12.9858C48.0578 12.8475 48.1709 12.6967 48.2715 12.5333C48.3721 12.3573 48.4475 12.1813 48.4852 11.9927C48.5858 11.5779 48.5858 11.1505 48.4852 10.7356C48.3972 10.3585 48.1961 10.0065 47.9195 9.74255C47.7813 9.60428 47.6178 9.49114 47.4544 9.40315C47.2784 9.30258 47.0773 9.23973 46.8887 9.18944C46.675 9.13916 46.4488 9.11402 46.2351 9.11402C46.0214 9.11402 45.7951 9.13916 45.5814 9.18944C45.3803 9.23973 45.1917 9.30258 45.0157 9.40315C44.8397 9.49114 44.6889 9.60428 44.5506 9.74255C44.4123 9.88083 44.2992 10.0317 44.1986 10.1951C43.8969 10.7482 43.8215 11.3893 43.9849 12.0053C44.0352 12.1938 44.1106 12.3824 44.1986 12.5458C44.2866 12.7092 44.4123 12.8601 44.5506 12.9984C44.6889 13.1366 44.8397 13.2498 45.0157 13.3378C45.1917 13.4258 45.3803 13.5012 45.5814 13.5515C45.7951 13.6018 46.0088 13.6269 46.2351 13.6269C46.4613 13.6269 46.675 13.6018 46.8887 13.5389ZM45.0157 15.2485C44.6386 15.1605 44.274 15.0348 43.9346 14.8588C43.6078 14.6954 43.3187 14.4943 43.0421 14.2554C42.7781 14.0166 42.5518 13.7526 42.3759 13.4509C42.1873 13.1492 42.049 12.8224 41.9484 12.483C41.7473 11.7539 41.7473 10.9871 41.9484 10.2705C42.049 9.93112 42.1873 9.60428 42.3759 9.30258C42.753 8.69919 43.2935 8.20893 43.9346 7.89466C44.274 7.71867 44.6386 7.59296 45.0157 7.50497C45.8202 7.31641 46.6625 7.31641 47.467 7.50497C47.8441 7.59296 48.1961 7.71867 48.5355 7.89466C48.8623 8.05808 49.1515 8.25921 49.428 8.51062C49.692 8.74947 49.9183 9.01345 50.1068 9.31515C50.2954 9.61685 50.4462 9.94369 50.5342 10.2831C50.7354 11.0122 50.7354 11.779 50.5342 12.4955C50.3457 13.1869 49.956 13.8029 49.428 14.268C49.164 14.5069 48.8623 14.708 48.5355 14.8714C48.1961 15.0474 47.8315 15.1731 47.467 15.2611C46.6625 15.4371 45.8202 15.4371 45.0157 15.2485ZM36.9453 13.5389C37.1464 13.4886 37.335 13.4258 37.511 13.3252C37.687 13.2372 37.8378 13.1241 37.9761 12.9858C38.1144 12.8475 38.2275 12.6967 38.3281 12.5333C38.4286 12.3573 38.5041 12.1813 38.5418 11.9927C38.6424 11.5779 38.6424 11.1505 38.5418 10.7356C38.4538 10.3585 38.2527 10.0065 37.9761 9.74255C37.8378 9.60428 37.6744 9.49114 37.511 9.40315C37.335 9.30258 37.1339 9.23973 36.9453 9.18944C36.7316 9.13916 36.5053 9.11402 36.2916 9.11402C36.0779 9.11402 35.8517 9.13916 35.638 9.18944C35.4368 9.23973 35.2483 9.30258 35.0723 9.40315C34.9088 9.49114 34.7454 9.60428 34.6072 9.74255C34.4689 9.86826 34.3557 10.0317 34.2552 10.1951C34.1672 10.3711 34.0918 10.5471 34.0415 10.7356C33.9912 10.9368 33.9535 11.1505 33.966 11.3642C33.966 11.5779 33.9912 11.7916 34.0415 11.9927C34.0918 12.1813 34.1672 12.3698 34.2552 12.5333C34.3432 12.6967 34.4689 12.8475 34.6072 12.9858C34.7454 13.1241 34.8963 13.2372 35.0723 13.3252C35.2483 13.4132 35.4368 13.4886 35.638 13.5389C35.8517 13.5892 36.0654 13.6143 36.2916 13.6143C36.5053 13.6143 36.7316 13.5892 36.9453 13.5389ZM35.0597 15.2485C34.6826 15.1605 34.318 15.0348 33.9786 14.8588C33.6518 14.6954 33.3627 14.4943 33.0861 14.2554C32.8221 14.0166 32.5958 13.7526 32.4198 13.4509C32.2313 13.1492 32.093 12.8224 31.9924 12.483C31.7913 11.7539 31.7913 10.9871 31.9924 10.2705C32.093 9.93112 32.2313 9.60428 32.4198 9.30258C32.6084 9.00088 32.8347 8.7369 33.0861 8.49805C33.3501 8.25921 33.6518 8.04551 33.9786 7.88209C34.318 7.7061 34.6826 7.58039 35.0597 7.4924C35.8642 7.31641 36.7065 7.31641 37.511 7.4924C37.8881 7.58039 38.2401 7.7061 38.5795 7.88209C38.9063 8.04551 39.1955 8.24664 39.472 8.49805C39.736 8.7369 39.9623 9.00088 40.1508 9.30258C40.3394 9.60428 40.4902 9.93112 40.5782 10.2705C40.7794 10.9996 40.7794 11.7664 40.5782 12.483C40.3897 13.1744 40 13.7903 39.472 14.2554C39.208 14.4943 38.9063 14.6954 38.5795 14.8588C38.2401 15.0348 37.8755 15.1605 37.511 15.2485C36.719 15.4371 35.8768 15.4371 35.0597 15.2485ZM18.7178 4.488H20.9051L24.626 10.1825L28.3721 4.488H30.5468V15.1731H28.3847V7.84438L25.2923 12.571H23.9723L20.8799 7.84438V15.1731H18.7178V4.488Z" fill="#0F1018"/>
<path d="M13.7394 6.39878C14.9462 6.39878 15.9141 5.41827 15.9141 4.22405C15.9141 3.01726 14.9336 2.04932 13.7394 2.04932C12.5326 2.04932 11.5647 3.02983 11.5647 4.22405C11.5647 5.41827 12.5326 6.39878 13.7394 6.39878ZM7.05178 16.2165C4.11024 16.2165 1.73438 13.8406 1.73438 10.8991C1.73438 7.95755 4.11024 5.58169 7.05178 5.58169C9.99333 5.58169 12.3692 7.95755 12.3692 10.8991C12.3692 13.8406 9.99333 16.2165 7.05178 16.2165Z" fill="#7D00FF"/>
</g>
<defs>
<clipPath id="clip0_27131_69388">
<rect width="90.8737" height="20" fill="white"/>
</clipPath>
</defs>
</svg>
