<svg width="18" height="18" viewBox="0 0 18 18" fill="#e7b587" xmlns="http://www.w3.org/2000/svg">
<path d="M10.5113 2.80936L11.7947 5.37603C11.9697 5.73332 12.4363 6.07603 12.8301 6.14165L15.1561 6.52811C16.6436 6.77603 16.9936 7.8552 15.9217 8.91978L14.1134 10.7281C13.8072 11.0344 13.6395 11.625 13.7342 12.0479L14.252 14.2864C14.6603 16.0583 13.7197 16.7437 12.152 15.8177L9.97175 14.5271C9.578 14.2937 8.92904 14.2937 8.528 14.5271L6.34779 15.8177C4.78737 16.7437 3.83946 16.051 4.24779 14.2864L4.7655 12.0479C4.86029 11.625 4.69258 11.0344 4.38633 10.7281L2.578 8.91978C1.51341 7.8552 1.85612 6.77603 3.34362 6.52811L5.66966 6.14165C6.05612 6.07603 6.52279 5.73332 6.69779 5.37603L7.98112 2.80936C8.68112 1.41665 9.81862 1.41665 10.5113 2.80936Z" fill="#e7b587" stroke="#e7b587" stroke-width="1.3125" stroke-linecap="round" stroke-linejoin="round"/>
</svg>
