<svg width="16" height="17" viewBox="0 0 16 17" fill="none" xmlns="http://www.w3.org/2000/svg">
<mask id="path-1-inside-1_21300_14165" fill="white">
<path d="M6.83337 7.1865C6.83337 7.5465 6.93337 7.59984 7.16004 7.67984L7.50004 7.79984V6.6665H7.30004C7.04671 6.6665 6.83337 6.89984 6.83337 7.1865Z"/>
</mask>
<path d="M6.83337 7.1865C6.83337 7.5465 6.93337 7.59984 7.16004 7.67984L7.50004 7.79984V6.6665H7.30004C7.04671 6.6665 6.83337 6.89984 6.83337 7.1865Z" fill="#b5b7da"/>
<path d="M7.16004 7.67984L6.82722 8.62283L6.82722 8.62283L7.16004 7.67984ZM7.50004 7.79984L7.16722 8.74283L8.50004 9.21323V7.79984H7.50004ZM7.50004 6.6665H8.50004V5.6665H7.50004V6.6665ZM5.83337 7.1865C5.83337 7.4135 5.85403 7.80832 6.12339 8.15344C6.38309 8.48618 6.75303 8.59664 6.82722 8.62283L7.49286 6.73685C7.43509 6.71646 7.45027 6.7194 7.48188 6.73617C7.52666 6.75992 7.61697 6.81648 7.70002 6.9229C7.78304 7.02926 7.81576 7.13011 7.82771 7.18275C7.83762 7.22637 7.83337 7.2373 7.83337 7.1865H5.83337ZM6.82722 8.62283L7.16722 8.74283L7.83286 6.85685L7.49286 6.73685L6.82722 8.62283ZM8.50004 7.79984V6.6665H6.50004V7.79984H8.50004ZM7.50004 5.6665H7.30004V7.6665H7.50004V5.6665ZM7.30004 5.6665C6.40054 5.6665 5.83337 6.44636 5.83337 7.1865H7.83337C7.83337 7.29157 7.79432 7.4001 7.71402 7.48906C7.63371 7.57803 7.49069 7.6665 7.30004 7.6665V5.6665Z" fill="#b5b7da" mask="url(#path-1-inside-1_21300_14165)"/>
<mask id="path-3-inside-2_21300_14165" fill="white">
<path d="M8.5 10.3335H8.7C8.96 10.3335 9.16667 10.1002 9.16667 9.81353C9.16667 9.45353 9.06667 9.40019 8.84 9.32019L8.5 9.2002V10.3335Z"/>
</mask>
<path d="M8.5 10.3335H8.7C8.96 10.3335 9.16667 10.1002 9.16667 9.81353C9.16667 9.45353 9.06667 9.40019 8.84 9.32019L8.5 9.2002V10.3335Z" fill="#b5b7da"/>
<path d="M8.5 10.3335H7.5V11.3335H8.5V10.3335ZM8.84 9.32019L9.17282 8.3772L9.17282 8.3772L8.84 9.32019ZM8.5 9.2002L8.83282 8.2572L7.5 7.7868V9.2002H8.5ZM8.5 11.3335H8.7V9.33353H8.5V11.3335ZM8.7 11.3335C9.6149 11.3335 10.1667 10.544 10.1667 9.81353H8.16667C8.16667 9.71713 8.20153 9.60828 8.28525 9.51462C8.37132 9.41832 8.51734 9.33353 8.7 9.33353V11.3335ZM10.1667 9.81353C10.1667 9.58653 10.146 9.19171 9.87665 8.84659C9.61695 8.51386 9.24701 8.40339 9.17282 8.3772L8.50718 10.2632C8.56495 10.2836 8.54977 10.2806 8.51816 10.2639C8.47338 10.2401 8.38307 10.1835 8.30002 10.0771C8.21701 9.97077 8.18429 9.86992 8.17233 9.81729C8.16243 9.77366 8.16667 9.76273 8.16667 9.81353H10.1667ZM9.17282 8.3772L8.83282 8.2572L8.16718 10.1432L8.50718 10.2632L9.17282 8.3772ZM7.5 9.2002V10.3335H9.5V9.2002H7.5Z" fill="#b5b7da" mask="url(#path-3-inside-2_21300_14165)"/>
<path d="M13.0534 4.1535L11.6867 5.52016C11.5867 5.62016 11.46 5.66683 11.3334 5.66683C11.2067 5.66683 11.08 5.62016 10.98 5.52016C10.7867 5.32683 10.7867 5.00683 10.98 4.8135L12.3467 3.44683C11.1734 2.44683 9.66004 1.8335 8.00004 1.8335C4.32004 1.8335 1.33337 4.82016 1.33337 8.50016C1.33337 12.1802 4.32004 15.1668 8.00004 15.1668C11.68 15.1668 14.6667 12.1802 14.6667 8.50016C14.6667 6.84016 14.0534 5.32683 13.0534 4.1535ZM9.16671 8.38016C9.59337 8.5335 10.1667 8.84016 10.1667 9.82016C10.1667 10.6535 9.50671 11.3402 8.70004 11.3402H8.50004V11.5068C8.50004 11.7802 8.27337 12.0068 8.00004 12.0068C7.72671 12.0068 7.50004 11.7802 7.50004 11.5068V11.3402H7.44671C6.56004 11.3402 5.83337 10.5935 5.83337 9.6735C5.83337 9.3935 6.06004 9.16683 6.33337 9.16683C6.60671 9.16683 6.83337 9.3935 6.83337 9.66683C6.83337 10.0335 7.10671 10.3335 7.44671 10.3335H7.50004V8.8535L6.83337 8.62016C6.40671 8.46683 5.83337 8.16016 5.83337 7.18016C5.83337 6.34683 6.49337 5.66016 7.30004 5.66016H7.50004V5.50016C7.50004 5.22683 7.72671 5.00016 8.00004 5.00016C8.27337 5.00016 8.50004 5.22683 8.50004 5.50016V5.66683H8.55337C9.44004 5.66683 10.1667 6.4135 10.1667 7.3335C10.1667 7.60683 9.94004 7.8335 9.66671 7.8335C9.39337 7.8335 9.16671 7.60683 9.16671 7.3335C9.16671 6.96683 8.89337 6.66683 8.55337 6.66683H8.50004V8.14683L9.16671 8.38016Z" fill="#b5b7da"/>
<path d="M15.1267 1.64016C15.0733 1.52016 14.98 1.42016 14.8533 1.36683C14.7933 1.34683 14.7333 1.3335 14.6667 1.3335H12C11.7267 1.3335 11.5 1.56016 11.5 1.8335C11.5 2.10683 11.7267 2.3335 12 2.3335H13.46L12.3467 3.44683C12.6 3.66683 12.8333 3.90016 13.0533 4.1535L14.1667 3.04016V4.50016C14.1667 4.7735 14.3933 5.00016 14.6667 5.00016C14.94 5.00016 15.1667 4.7735 15.1667 4.50016V1.8335C15.1667 1.76683 15.1533 1.70683 15.1267 1.64016Z" fill="#b5b7da"/>
</svg>
