<svg width="16" height="17" viewBox="0 0 16 17" fill="#b5b7da" xmlns="http://www.w3.org/2000/svg">
<path d="M10.5202 1.83333H5.48016C2.96016 1.83333 2.3335 2.50666 2.3335 5.19333V12.7C2.3335 14.4733 3.30683 14.8933 4.48683 13.6267L4.4935 13.62C5.04016 13.04 5.8735 13.0867 6.34683 13.72L7.02016 14.62C7.56016 15.3333 8.4335 15.3333 8.9735 14.62L9.64683 13.72C10.1268 13.08 10.9602 13.0333 11.5068 13.62C12.6935 14.8867 13.6602 14.4667 13.6602 12.6933V5.19333C13.6668 2.50666 13.0402 1.83333 10.5202 1.83333ZM9.8335 7.66666H6.16683C5.8935 7.66666 5.66683 7.44 5.66683 7.16666C5.66683 6.89333 5.8935 6.66666 6.16683 6.66666H9.8335C10.1068 6.66666 10.3335 6.89333 10.3335 7.16666C10.3335 7.44 10.1068 7.66666 9.8335 7.66666Z" fill="#b5b7da" />
</svg>
