<svg width="16" height="17" viewBox="0 0 16 17" fill="#b5b7da" xmlns="http://www.w3.org/2000/svg">
<path d="M13.0068 4.40004L9.04678 2.11337C8.40011 1.74004 7.60011 1.74004 6.94678 2.11337L2.99344 4.40004C2.34678 4.77337 1.94678 5.46671 1.94678 6.22004V10.78C1.94678 11.5267 2.34678 12.22 2.99344 12.6L6.95344 14.8867C7.60011 15.26 8.40011 15.26 9.05344 14.8867L13.0134 12.6C13.6601 12.2267 14.0601 11.5334 14.0601 10.78V6.22004C14.0534 5.46671 13.6534 4.78004 13.0068 4.40004ZM8.00011 5.39337C8.86011 5.39337 9.55344 6.08671 9.55344 6.94671C9.55344 7.80671 8.86011 8.50004 8.00011 8.50004C7.14011 8.50004 6.44678 7.80671 6.44678 6.94671C6.44678 6.09337 7.14011 5.39337 8.00011 5.39337ZM9.78678 11.6067H6.21344C5.67344 11.6067 5.36011 11.0067 5.66011 10.56C6.11344 9.88671 6.99344 9.43337 8.00011 9.43337C9.00678 9.43337 9.88678 9.88671 10.3401 10.56C10.6401 11 10.3201 11.6067 9.78678 11.6067Z" fill="#b5b7da" />
</svg>
